<svg
   width="13.288253mm"
   height="13.277169mm"
   viewBox="0 0 13.288253 13.277169"
   version="1.1"
   id="svg5"
   xmlns="http://www.w3.org/2000/svg"
   xmlns:svg="http://www.w3.org/2000/svg">
    <path
       style="fill:#000000;stroke-width:0.0165331"
       d="m 5.7183156,13.219404 c -0.584752,-0.489599 -0.07859,-1.479677 -0.728644,-1.917813 -0.75829,-0.661077 -1.391067,0.338328 -2.065505,0.585769 -0.721677,-0.04694 -1.27426,-0.895767 -1.553255,-1.452775 0.114269,-0.6225668 0.899162,-0.9624747 0.848568,-1.6243547 -0.134071,-0.948963 -1.127257,-0.916974 -1.86056502,-1.032138 -0.539528,-0.516373 -0.377471,-1.63449 -0.118554,-2.228265 0.569283,-0.326674 1.55644102,0.04135 1.81943902,-0.731354 0.605001,-0.83683 -0.753501,-1.330287 -0.66748,-2.11757 0.290722,-0.576388 0.942469,-1.268172 1.540763,-1.339604 0.641853,0.295874 1.185858,1.164191 1.971154,0.67753 0.798937,-0.403615 0.117068,-1.74457604 1.024405,-2.02225104 0.713064,0.03133 1.998553,-0.273864 1.953276,0.819615 -0.08025,0.69251804 0.405991,1.46771404 1.173529,1.32517204 0.681947,-0.177763 1.3532494,-1.31931704 2.0437774,-0.509374 0.325574,0.512011 1.259746,0.971064 0.654525,1.615107 -0.42773,0.453129 -0.853501,1.036357 -0.479222,1.653312 0.418777,0.779873 1.801441,0.08347 2.011378,1.068608 -0.0944,0.609668 0.265196,1.682746 -0.527493,1.839572 -0.692681,0.04594 -1.525882,0.132984 -1.659972,0.965689 -0.100953,0.805908 1.296217,1.3399477 0.642302,2.1450397 -0.51197,0.35628 -1.055153,1.431666 -1.737681,0.777014 -0.5085564,-0.493966 -1.2129174,-0.914462 -1.8254494,-0.337168 -0.525762,0.547343 0.02693,1.89942 -1.061055,1.892961 -0.467485,0.03194 -0.931442,-0.100127 -1.398241,-0.05272 z m 1.480864,-3.8828097 c 1.679838,-0.262049 2.743313,-2.316684 1.981338,-3.840388 -0.593982,-1.385657 -2.413564,-2.05484 -3.752563,-1.337874 -1.384192,0.653741 -1.968019,2.541069 -1.163476,3.85263 0.57158,0.995891 1.804725,1.580044 2.934701,1.325632 z m -0.761673,-1.586738 c -0.905303,-0.119699 -1.251296,-1.469918 -0.498568,-2.000803 0.680787,-0.622678 1.907436,-0.03163 1.868601,0.881641 0.0092,0.684857 -0.693738,1.285247 -1.370033,1.119162 z"
       id="path1904" />
</svg>
