<svg width="273.57916mm" height="36.539371mm" viewBox="0 0 273.57916 36.539371">
    <path style="fill:#333333;fill-opacity:1;stroke-width:0.264583" d="m -29.709457,207.38051 v -13.22916 h 2.381249 2.38125 v 0.98219 0.98219 l 0.764749,-0.91604 0.764752,-0.91605 h 3.184596 c 3.560038,0 4.158943,0.23138 5.207778,2.01203 0.503963,0.8556 0.533141,1.45602 0.612608,12.6062 l 0.08344,11.70781 h -2.530837 -2.530838 V 209.5501 c 0,-8.24912 -0.08068,-11.14027 -0.3175,-11.37709 -0.187695,-0.18769 -1.090377,-0.3175 -2.20795,-0.3175 -3.091844,0 -2.884617,-0.83102 -2.975811,11.93373 l -0.0773,10.82044 h -2.370091 -2.370093 z m 20.1083322,0 v -13.22916 h 2.38125 2.38125 v 13.22916 13.22917 h -2.38125 -2.38125 z M 2.1201235,220.0593 c -0.793356,-0.3927 -1.26619203,-0.87045 -1.65364603,-1.67082 -0.517808,-1.06965 -0.542337,-1.57344 -0.536792,-11.02536 0.0054,-9.2377 0.04045,-9.98079 0.520232,-11.0379 0.84299403,-1.85736 1.85076603,-2.16225 7.14687503,-2.16225 3.7588875,0 4.5231465,0.0715 5.4990385,0.51442 1.62556,0.73779 2.160466,2.0278 2.168067,5.22864 l 0.0058,2.4474 h -2.38125 -2.38125 v -1.83318 c 0,-2.45574 -0.228266,-2.66474 -2.9104155,-2.66474 -1.537102,0 -2.187223,0.10836 -2.494643,0.41578 -0.360881,0.36088 -0.415774,1.54855 -0.415774,8.99583 0,10.2063 -0.178168,9.63839 3.023809,9.63839 2.5556785,0 2.7970235,-0.22993 2.7970235,-2.66473 v -1.83318 h 2.38125 2.38125 v 2.43 c 0,3.11354 -0.555156,4.42296 -2.216105,5.22701 -0.996955,0.48262 -1.624174,0.54505 -5.4741995,0.54486 -3.870049,-1.8e-4 -4.470421,-0.0607 -5.45928,-0.55017 z M 21.752,220.23618 c -1.096166,-0.48719 -1.877782,-1.41762 -2.242312,-2.66921 -0.217254,-0.74593 -0.283252,-3.94805 -0.223589,-10.84792 0.09599,-11.10134 0.07921,-11.01124 2.246374,-12.06035 1.023855,-0.49564 1.52541,-0.53301 6.138833,-0.4574 4.591274,0.0753 5.088127,0.12952 5.769996,0.63031 1.655805,1.21609 1.671291,1.33238 1.671746,12.55303 5.29e-4,11.63102 0.01733,11.53081 -2.12575,12.62973 -1.07659,0.55204 -1.498211,0.59456 -5.801257,0.58495 -3.273893,-0.007 -4.874021,-0.11424 -5.434041,-0.36314 z m 8.281458,-3.64817 c 0.234373,-0.23437 0.3175,-2.65039 0.3175,-9.22802 0,-7.96575 -0.04639,-8.94902 -0.437539,-9.27364 -0.298804,-0.24799 -1.186463,-0.36313 -2.799456,-0.36313 -2.032666,0 -2.414262,0.0716 -2.737458,0.51359 -0.306234,0.4188 -0.375547,2.11226 -0.375547,9.17537 0,7.52157 0.05473,8.71652 0.415775,9.07756 0.522811,0.52281 5.111892,0.60311 5.616725,0.0983 z m 9.8425,-14.23458 v -18.25625 h 2.38125 2.38125 v 18.25625 18.25625 h -2.38125 -2.38125 z m 11.698877,17.7423 c -0.858914,-0.399 -1.258001,-0.80101 -1.647836,-1.65993 -0.479872,-1.05729 -0.51481,-1.80046 -0.520231,-11.06537 -0.0057,-9.77937 0.0033,-9.9501 0.589502,-11.1125 0.869511,-1.7243 1.808525,-2.10567 5.185833,-2.10617 l 2.738438,-4.1e-4 0.899583,0.89958 0.899583,0.89958 v -0.89958 -0.89958 h 2.38125 2.38125 v 13.22916 13.22917 h -2.38125 -2.38125 v -0.98219 -0.9822 l -0.764286,0.91605 -0.764286,0.91605 -2.741443,0.0724 c -2.28305,0.0603 -2.930959,-0.0156 -3.874857,-0.45409 z m 7.170078,-3.49441 c 0.317855,-0.16731 0.665393,-0.4352 0.772306,-0.59531 0.106913,-0.16012 0.19621,-4.07136 0.198437,-8.69164 0.0048,-9.95414 0.155994,-9.45886 -2.887466,-9.45886 -1.313754,0 -1.950995,0.11781 -2.248958,0.41578 -0.360765,0.36076 -0.415775,1.5432 -0.415775,8.93696 0,10.05287 -0.08851,9.69726 2.413649,9.69726 0.87444,0 1.849953,-0.13688 2.167807,-0.30419 z m 12.748755,3.64679 c -1.733346,-0.79643 -2.513544,-2.38004 -2.513544,-5.10187 v -1.68031 h 2.381254 2.38125 v 1.42281 c 0,1.81703 0.36865,2.14025 2.44115,2.14025 2.17808,0 2.32241,-0.24568 2.31729,-3.94436 -0.002,-1.6093 -0.11676,-3.10459 -0.25451,-3.32287 -0.19025,-0.30146 -1.00031,-0.43133 -3.36939,-0.54018 -5.354114,-0.24602 -5.897044,-0.95342 -5.897044,-7.68342 0,-4.77637 0.209063,-5.60296 1.698854,-6.71684 0.63619,-0.47567 1.18846,-0.54744 4.78814,-0.62225 3.62405,-0.0753 4.20156,-0.0259 5.28113,0.4516 1.61083,0.71255 2.24084,2.0365 2.24898,4.7262 l 0.006,1.91823 h -2.38125 -2.38125 v -1.5782 c 0,-1.85596 -0.29379,-2.12597 -2.31328,-2.12597 -2.1111,0 -2.29339,0.27567 -2.3891,3.61299 -0.11909,4.15251 -0.11867,4.15303 3.51967,4.34735 3.54447,0.1893 4.66017,0.63522 5.49539,2.19638 0.53228,0.99492 0.58212,1.4618 0.58212,5.4537 0,3.88977 -0.0577,4.46354 -0.52917,5.26401 -1.08925,1.84925 -1.5493,2.00432 -6.17027,2.07974 -3.08431,0.0503 -4.35209,-0.0258 -4.94223,-0.29699 z m 16.00729,-12.8676 v -13.22916 h 2.381248 2.38125 l 0.0156,1.52135 c 0.0132,1.28606 0.0643,1.44343 0.33073,1.0175 0.89186,-1.4258 1.83352,-2.22735 2.94566,-2.50739 2.26795,-0.57108 2.2643,-0.57401 2.2643,1.82062 v 2.11667 h -1.33141 c -1.79023,0 -3.02575,0.55852 -3.61195,1.6328 -0.43605,0.79911 -0.48783,1.80645 -0.55865,10.86876 l -0.078,9.98802 h -2.36934 -2.369348 v -13.22917 z m 15.515842,12.95712 c -0.931,-0.27899 -1.67536,-0.93349 -2.24762,-1.97628 -0.38355,-0.69892 -0.43593,-2.01839 -0.43593,-10.98084 0,-9.7106 0.0247,-10.22842 0.52917,-11.08484 0.97102,-1.64855 1.73012,-2.00131 4.5277,-2.10409 3.0588,-0.11238 3.6763,0.0288 4.64071,1.06123 l 0.75346,0.80658 v -0.95402 -0.95402 h 2.38125 2.38125 v 13.22916 13.22917 h -2.38125 -2.38125 v -0.92604 c 0,-0.97713 -0.38993,-1.25239 -0.64329,-0.45412 -0.30645,0.96555 -1.54092,1.38158 -4.02774,1.35742 -1.28723,-0.0125 -2.68064,-0.1247 -3.09646,-0.24931 z m 7.17133,-4.04538 c 0.42269,-0.4226 0.46387,-1.21204 0.46387,-8.89317 0,-10.04163 0.15127,-9.54357 -2.89851,-9.54357 -1.11757,0 -2.02025,0.12981 -2.20795,0.3175 -0.2344,0.23441 -0.3175,2.65467 -0.3175,9.24727 0,10.28771 -0.21218,9.55069 2.71113,9.41723 1.26652,-0.0578 1.91984,-0.21622 2.24896,-0.54526 z m 10.3772,3.58983 c -0.0146,-1.24674 -0.0184,-20.16186 -0.005,-23.01875 l 0.0131,-2.71198 h 2.38125 2.38125 l 0.0179,0.99218 c 0.0155,0.86 0.0535,0.91888 0.28493,0.44191 0.51735,-1.0662 1.58921,-1.43409 4.17826,-1.43409 2.69056,0 3.86691,0.35535 4.70549,1.42143 l 0.54417,0.69181 1.07959,-1.07959 1.07959,-1.07959 3.03246,0.0891 c 3.37807,0.0993 4.0355,0.37261 5.05365,2.10115 0.50396,0.8556 0.53314,1.45602 0.61261,12.6062 l 0.0834,11.70781 h -2.53084 -2.53084 v -11.05958 c 0,-8.24912 -0.0807,-11.14027 -0.3175,-11.37709 -0.18469,-0.18469 -1.07009,-0.3175 -2.11666,-0.3175 -3.0571,0 -2.8575,-0.83166 -2.8575,11.90625 v 10.84792 h -2.38125 -2.38125 l -0.004,-10.64948 c -0.003,-8.03527 -0.0858,-10.81185 -0.33747,-11.31094 -0.29973,-0.59435 -0.51682,-0.66945 -2.13982,-0.74031 -1.30336,-0.0569 -1.98288,0.0369 -2.44066,0.33683 l -0.63442,0.41568 v 10.97411 10.97411 h -2.38125 -2.38125 l -0.009,-0.7276 z m 29.90646,-12.50157 v -13.22916 h 2.51354 2.51354 v 13.22916 13.22917 h -2.51354 -2.51354 z m 9.78958,0 v -13.22916 h 2.51354 2.51354 l 0.006,1.52135 0.006,1.52135 0.41433,-0.84013 c 0.22788,-0.46208 0.634,-1.03894 0.9025,-1.28193 0.61237,-0.55419 2.27775,-1.15833 3.23518,-1.17361 l 0.72759,-0.0116 v 2.11667 2.11667 h -1.34908 c -0.74199,0 -1.74482,0.18779 -2.22851,0.41732 -1.678,0.79626 -1.71408,1.05143 -1.71408,12.12423 v 9.94803 h -2.51354 -2.51354 z m 15.34583,12.64741 c -2.13601,-1.09233 -2.11578,-0.96988 -2.11625,-12.80672 -5.3e-4,-10.31576 0.001,-10.34837 0.60017,-11.24479 1.08065,-1.61763 1.87161,-1.82493 6.94004,-1.81884 5.4421,0.007 6.43211,0.30134 7.27917,2.16765 0.45705,1.00702 0.51507,1.7598 0.52023,6.75033 l 0.006,5.61692 -5.35781,0.0716 -5.35781,0.0716 -0.0743,3.40743 c -0.0996,4.56748 -0.0391,4.66236 2.97191,4.66236 2.74279,0 3.05551,-0.2321 3.05551,-2.26785 v -1.43631 h 2.42028 2.42029 l -0.1768,2.30002 c -0.19167,2.49365 -0.61207,3.50434 -1.83814,4.41919 -0.68157,0.50857 -1.1517,0.56374 -5.42396,0.63653 -4.44335,0.0757 -4.73736,0.0492 -5.86834,-0.52917 z m 8.46667,-18.17126 c 0,-4.17321 0.0299,-4.13344 -3.1047,-4.13344 -2.95757,0 -2.98072,0.0333 -2.98072,4.2839 v 3.25673 h 3.04271 3.04271 z m 7.67292,16.67999 v -2.07303 l 4.49602,-9.10561 c 2.47282,-5.00809 4.49688,-9.19492 4.49792,-9.30406 10e-4,-0.10914 -1.90311,-0.19844 -4.23144,-0.19844 h -4.23334 v -1.85208 -1.85208 h 6.74688 6.74687 v 1.94288 1.94289 l -4.60535,9.36805 -4.60536,9.36805 4.73765,0.0721 4.73765,0.0721 v 1.84612 1.84611 h -7.14375 -7.14375 z m 17.4625,-16.18322 v -18.25625 h 2.51354 2.51354 v 18.25625 18.25625 h -2.51354 -2.51354 z m 11.78282,18.006 c -0.34994,-0.56621 -5.69746,-13.33966 -5.69804,-13.61075 0,-0.16181 1.27955,-3.0604 2.84427,-6.4413 l 2.8449,-6.1471 2.56808,-0.004 2.56804,-0.004 -2.00461,4.16719 c -3.50115,7.27816 -3.88469,8.12725 -3.8544,8.53281 0.0164,0.21828 1.24058,3.13531 2.7206,6.48229 1.48003,3.34698 2.79392,6.35331 2.91976,6.68073 0.2273,0.59141 0.21249,0.59531 -2.26256,0.59531 -1.37027,0 -2.56098,-0.11261 -2.64604,-0.25025 z m 9.91827,-0.21318 c -2.28652,-1.1488 -2.47388,-2.30636 -2.34428,-14.48553 0.084,-7.89957 0.12552,-8.52684 0.61923,-9.36505 0.97102,-1.64855 1.73013,-2.00131 4.52771,-2.10409 3.05879,-0.11238 3.6763,0.0288 4.64071,1.06123 l 0.75345,0.80658 v -0.95402 -0.95402 h 2.38125 2.38125 v 13.22916 13.22917 h -2.38125 -2.38125 v -0.92604 c 0,-0.97713 -0.38991,-1.25239 -0.64328,-0.45412 -0.0824,0.25955 -0.49572,0.67627 -0.91855,0.92604 -1.09323,0.64578 -5.34295,0.63982 -6.63499,-0.009 z m 7.60066,-3.8541 c 0.4227,-0.42269 0.46387,-1.21217 0.46387,-8.89331 0,-10.04151 0.15132,-9.54333 -2.89851,-9.54333 -1.11757,0 -2.02025,0.12981 -2.20795,0.3175 -0.23421,0.23421 -0.3175,2.624 -0.3175,9.10923 0,10.32883 -0.16626,9.73723 2.69113,9.57578 1.26426,-0.0714 1.94408,-0.24098 2.26896,-0.56587 z M -9.6011248,186.34614 v -2.24896 h 2.513542 2.513542 v 2.24896 2.24896 h -2.513542 -2.513542 z m 160.0729148,0 v -2.24896 h 2.51354 2.51354 v 2.24896 2.24896 h -2.51354 -2.51354 z" id="path1003" />
</svg>
